SplineFontDB: 3.0
FontName: Pentatonic
FullName: Pentatonic
FamilyName: Pentatonic
Weight: Regular
Copyright: Copyright (c) 2016, Michael Tolly
UComments: "2016-10-4: Created with FontForge (http://fontforge.org)"
Version: 001.000
ItalicAngle: 0
UnderlinePosition: -102.4
UnderlineWidth: 51.2
Ascent: 819
Descent: 205
InvalidEm: 0
LayerCount: 3
Layer: 0 0 "Back" 1
Layer: 1 0 "Fore" 0
Layer: 2 0 "Back 2" 1
XUID: [1021 15 902490472 7850117]
StyleMap: 0x0000
FSType: 0
OS2Version: 0
OS2_WeightWidthSlopeOnly: 0
OS2_UseTypoMetrics: 1
CreationTime: 1475629050
ModificationTime: 1475735352
OS2TypoAscent: 0
OS2TypoAOffset: 1
OS2TypoDescent: 0
OS2TypoDOffset: 1
OS2TypoLinegap: 92
OS2WinAscent: 0
OS2WinAOffset: 1
OS2WinDescent: 0
OS2WinDOffset: 1
HheadAscent: 0
HheadAOffset: 1
HheadDescent: 0
HheadDOffset: 1
MarkAttachClasses: 1
DEI: 91125
Encoding: ISO8859-1
UnicodeInterp: none
NameList: AGL For New Fonts
DisplaySize: -48
AntiAlias: 1
FitToEm: 0
WidthSeparation: 150
WinInfo: 51 17 7
BeginPrivate: 0
EndPrivate
Grid
-1024 627.299987793 m 0
 2048 627.299987793 l 1024
  Named: "top of capitals"
EndSplineSet
BeginChars: 256 57

StartChar: A
Encoding: 65 65 0
Width: 739
VWidth: 0
Flags: HW
LayerCount: 3
Fore
SplineSet
293 627 m 1
 447 627 l 1
 692 0 l 1
 574 0 l 1
 520 132 l 1
 217 132 l 1
 163 0 l 1
 45 0 l 1
 293 627 l 1
364 520 m 1
 253 241 l 1
 478 241 l 1
 364 520 l 1
EndSplineSet
Validated: 1
EndChar

StartChar: B
Encoding: 66 66 1
Width: 663
VWidth: 0
Flags: HW
LayerCount: 3
Fore
SplineSet
385 100 m 2
 460 100 495 144 495 189 c 0
 495 238 456 287 385 287 c 2
 189 287 l 1
 189 100 l 1
 385 100 l 2
396 382 m 2
 448 382 475 417 475 452 c 0
 475 485 450 518 396 518 c 2
 189 518 l 1
 189 382 l 1
 396 382 l 2
400 624 m 2
 530 624 583 547 583 472 c 0
 583 413 549 356 492 341 c 1
 565 325 603 257 603 186 c 0
 603 96 542 0 414 0 c 2
 74 0 l 1
 74 624 l 1
 400 624 l 2
EndSplineSet
Validated: 1
EndChar

StartChar: C
Encoding: 67 67 2
Width: 711
VWidth: 0
Flags: HW
LayerCount: 3
Fore
SplineSet
369 653 m 0
 519 653 609 571 651 465 c 1
 532 465 l 1
 496 515 441 546 374 548 c 0
 372 548 371 548 369 548 c 0
 275 548 179 468 173 344 c 0
 173 340 173 335 173 331 c 0
 173 201 262 114 376 109 c 0
 379 109 381 109 384 109 c 0
 450 109 504 143 538 195 c 1
 657 195 l 1
 607 66 487 0 372 -0 c 0
 370 0 369 0 367 0 c 0
 183 3 58 155 58 331 c 0
 58 332 58 334 58 335 c 0
 61 528 215 653 369 653 c 0
EndSplineSet
Validated: 1
EndChar

StartChar: D
Encoding: 68 68 3
Width: 699
VWidth: 0
Flags: HW
LayerCount: 3
Fore
SplineSet
326 628 m 2
 533 628 637 470 637 313 c 0
 637 156 534 0 328 0 c 2
 74 0 l 1
 74 628 l 1
 326 628 l 2
324 106 m 2
 459 106 520 210 520 314 c 0
 520 417 460 520 355 520 c 0
 303 520 244 520 190 520 c 1
 190 106 l 1
 324 106 l 2
EndSplineSet
Validated: 1
EndChar

StartChar: E
Encoding: 69 69 4
Width: 590
VWidth: 0
Flags: HW
LayerCount: 3
Fore
SplineSet
74 625 m 1
 519 625 l 1
 519 518 l 1
 194 518 l 1
 194 382 l 1
 494 382 l 1
 494 275 l 1
 194 275 l 1
 194 104 l 1
 531 104 l 1
 531 0 l 1
 74 0 l 1
 74 625 l 1
EndSplineSet
Validated: 1
EndChar

StartChar: at
Encoding: 64 64 5
Width: 902
VWidth: 0
Flags: HW
LayerCount: 3
Fore
SplineSet
624 236 m 2
 624 183 633 138 680 138 c 0
 706 138 737 158 737 244 c 0
 737 410 616 543 444 543 c 0
 281 543 165 410 165 244 c 0
 165 71 293 -56 451 -56 c 0
 542 -56 609 -29 655 16 c 1
 778 16 l 1
 718 -80 611 -142 450 -142 c 0
 227 -142 63 18 63 246 c 0
 63 460 227 634 450 634 c 0
 673 634 838 450 838 246 c 0
 838 171 810 88 737 68 c 0
 711 61 689 58 670 58 c 0
 580 58 557 122 550 122 c 1
 527 82 487 56 426 56 c 0
 411 56 395 58 378 61 c 0
 292 77 253 162 253 244 c 0
 253 290 265 335 289 366 c 0
 325 413 373 433 422 433 c 0
 461 433 501 420 536 396 c 1
 536 426 l 1
 624 426 l 1
 624 236 l 2
347 246 m 0
 347 192 388 148 437 148 c 0
 486 148 526 192 526 246 c 0
 526 300 486 344 437 344 c 0
 388 344 347 300 347 246 c 0
EndSplineSet
Validated: 1
EndChar

StartChar: F
Encoding: 70 70 6
Width: 581
VWidth: 0
Flags: HW
LayerCount: 3
Fore
SplineSet
74 629 m 1
 527 629 l 1
 527 520 l 1
 192 520 l 1
 192 386 l 1
 493 386 l 1
 493 281 l 1
 192 281 l 1
 192 0 l 1
 74 0 l 1
 74 629 l 1
EndSplineSet
Validated: 1
EndChar

StartChar: G
Encoding: 71 71 7
Width: 721
VWidth: 0
Flags: HW
LayerCount: 3
Fore
SplineSet
316 377 m 1
 653 377 l 1
 653 106 l 1
 595 43 475 0 358 -0 c 0
 318 0 278 5 242 16 c 0
 115 55 58 189 58 314 c 0
 58 377 72 438 99 484 c 0
 167 601 270 644 367 644 c 0
 502 644 626 562 634 484 c 1
 512 484 l 1
 487 521 431 543 372 543 c 0
 318 543 262 525 227 482 c 0
 185 432 169 377 169 324 c 0
 169 240 210 163 251 131 c 0
 285 104 328 93 370 93 c 0
 436 93 503 119 544 153 c 1
 544 275 l 1
 316 275 l 1
 316 377 l 1
EndSplineSet
Validated: 1
EndChar

StartChar: H
Encoding: 72 72 8
Width: 715
VWidth: 0
Flags: HW
LayerCount: 3
Fore
SplineSet
74 625 m 1
 187 625 l 1
 187 385 l 1
 519 385 l 1
 519 625 l 1
 639 625 l 1
 639 0 l 1
 519 0 l 1
 519 278 l 1
 187 278 l 1
 187 0 l 1
 74 0 l 1
 74 625 l 1
EndSplineSet
Validated: 1
EndChar

StartChar: I
Encoding: 73 73 9
Width: 270
VWidth: 0
Flags: HW
LayerCount: 3
Fore
SplineSet
74 0 m 1
 74 631 l 1
 194 631 l 1
 194 0 l 1
 74 0 l 1
EndSplineSet
Validated: 1
EndChar

StartChar: J
Encoding: 74 74 10
Width: 340
VWidth: 0
Flags: HW
LayerCount: 3
Fore
SplineSet
156 622 m 1
 266 622 l 1
 266 174 l 2
 266 35 200 0 98 -0 c 0
 84 0 68 1 52 2 c 1
 52 101 l 1
 56 101 60 101 64 101 c 0
 144 101 156 131 156 180 c 2
 156 622 l 1
EndSplineSet
Validated: 1
EndChar

StartChar: K
Encoding: 75 75 11
Width: 669
VWidth: 0
Flags: HW
LayerCount: 3
Fore
SplineSet
74 629 m 1
 190 629 l 1
 190 416 l 1
 466 629 l 1
 618 629 l 1
 618 621 l 1
 365 429 l 1
 618 4 l 1
 618 0 l 1
 486 0 l 1
 276 362 l 1
 190 296 l 1
 190 0 l 1
 74 0 l 1
 74 629 l 1
EndSplineSet
Validated: 1
EndChar

StartChar: L
Encoding: 76 76 12
Width: 576
VWidth: 0
Flags: HW
LayerCount: 3
Fore
SplineSet
74 627 m 1
 191 627 l 1
 191 108 l 1
 518 108 l 1
 518 0 l 1
 74 0 l 1
 74 627 l 1
EndSplineSet
Validated: 1
EndChar

StartChar: M
Encoding: 77 77 13
Width: 899
VWidth: 0
Flags: HW
LayerCount: 3
Fore
SplineSet
74 631 m 1
 261 631 l 1
 449 156 l 1
 633 631 l 1
 823 631 l 1
 823 0 l 1
 711 0 l 1
 711 523 l 1
 500 0 l 1
 397 0 l 1
 182 523 l 1
 182 0 l 1
 74 0 l 1
 74 631 l 1
EndSplineSet
Validated: 1
EndChar

StartChar: N
Encoding: 78 78 14
Width: 724
VWidth: 0
Flags: HW
LayerCount: 3
Fore
SplineSet
74 628 m 1
 251 628 l 1
 535 173 l 1
 535 628 l 1
 648 628 l 1
 648 0 l 1
 518 0 l 1
 187 516 l 1
 187 0 l 1
 74 0 l 1
 74 628 l 1
EndSplineSet
Validated: 1
EndChar

StartChar: O
Encoding: 79 79 15
Width: 770
VWidth: 0
Flags: HW
LayerCount: 3
Fore
SplineSet
382 653 m 0
 578 651 708 500 708 317 c 0
 708 126 540 0 385 -0 c 0
 383 0 382 0 380 0 c 0
 188 3 58 155 58 331 c 0
 58 332 58 334 58 335 c 0
 61 527 219 653 378 653 c 0
 379 653 381 653 382 653 c 0
388 548 m 0
 386 548 385 548 383 548 c 0
 286 548 184 468 178 344 c 0
 178 339 178 335 178 330 c 0
 178 201 260 114 379 109 c 0
 381 109 384 109 386 109 c 0
 503 109 590 209 590 322 c 0
 590 450 511 544 388 548 c 0
EndSplineSet
Validated: 1
EndChar

StartChar: P
Encoding: 80 80 16
Width: 663
VWidth: 0
Flags: HW
LayerCount: 3
Fore
SplineSet
411 626 m 2
 542 626 603 535 603 442 c 0
 603 345 536 245 411 245 c 2
 187 245 l 1
 187 0 l 1
 74 0 l 1
 74 626 l 1
 411 626 l 2
411 353 m 2
 466 353 494 396 494 439 c 0
 494 481 467 522 411 522 c 2
 187 522 l 1
 187 353 l 1
 411 353 l 2
EndSplineSet
Validated: 1
EndChar

StartChar: Q
Encoding: 81 81 17
Width: 777
VWidth: 0
Flags: HW
LayerCount: 3
Fore
SplineSet
383 651 m 0
 595 648 709 498 709 315 c 0
 709 233 678 163 631 110 c 1
 722 12 l 1
 582 12 l 1
 552 45 l 1
 501 15 440 0 384 -0 c 0
 382 0 381 0 379 0 c 0
 188 3 59 131 59 326 c 0
 59 328 59 331 59 333 c 0
 62 542 220 651 379 651 c 0
 380 651 382 651 383 651 c 0
378 546 m 0
 269 545 185 464 179 342 c 0
 179 336 179 330 179 325 c 0
 179 188 262 112 380 107 c 0
 383 107 385 107 388 107 c 0
 422 107 451 113 478 126 c 1
 336 282 l 1
 472 282 l 1
 555 192 l 1
 581 228 595 273 595 320 c 0
 595 448 512 542 389 546 c 0
 385 546 382 546 378 546 c 0
EndSplineSet
Validated: 1
EndChar

StartChar: R
Encoding: 82 82 18
Width: 661
VWidth: 0
Flags: HW
LayerCount: 3
Fore
SplineSet
409 622 m 1
 540 622 601 537 601 451 c 0
 601 368 545 284 441 270 c 1
 599 0 l 1
 474 0 l 1
 308 268 l 1
 185 268 l 1
 185 0 l 1
 74 0 l 1
 74 622 l 1
 409 622 l 1
409 370 m 2
 464 370 492 410 492 449 c 0
 492 487 465 524 409 524 c 2
 185 524 l 1
 185 370 l 1
 409 370 l 2
EndSplineSet
Validated: 1
EndChar

StartChar: S
Encoding: 83 83 19
Width: 660
VWidth: 0
Flags: HW
LayerCount: 3
Fore
SplineSet
49 199 m 1
 172 199 l 1
 191 130 270 97 345 97 c 0
 412 97 476 123 489 172 c 0
 490 177 491 181 491 186 c 0
 491 228 439 261 381 280 c 0
 342 293 273 303 238 307 c 0
 211 310 150 326 106 383 c 0
 88 406 76 436 76 469 c 0
 76 499 85 531 107 566 c 0
 143 625 227 653 314 653 c 0
 441 653 575 594 588 482 c 1
 466 482 l 1
 438 542 372 557 314 557 c 0
 306 557 298 556 291 556 c 0
 242 552 196 524 191 482 c 0
 191 478 190 475 190 471 c 0
 190 434 220 420 267 406 c 0
 309 394 369 384 425 371 c 0
 486 357 568 315 588 263 c 0
 596 241 600 216 600 191 c 0
 600 157 592 123 579 100 c 0
 539 32 441 8 368 1 c 0
 357 0 346 -1 335 -1 c 0
 188 -1 56 90 49 199 c 1
EndSplineSet
Validated: 1
EndChar

StartChar: T
Encoding: 84 84 20
Width: 664
VWidth: 0
Flags: HW
LayerCount: 3
Fore
SplineSet
49 626 m 1
 611 626 l 1
 611 517 l 1
 389 517 l 1
 389 0 l 1
 274 0 l 1
 274 517 l 1
 49 517 l 1
 49 626 l 1
EndSplineSet
Validated: 1
EndChar

StartChar: U
Encoding: 85 85 21
Width: 701
VWidth: 0
Flags: HW
LayerCount: 3
Fore
SplineSet
629 281 m 2
 629 94 489 0 349 0 c 0
 209 0 69 94 69 281 c 2
 69 645 l 1
 191 645 l 1
 191 267 l 2
 191 160 268 109 347 109 c 0
 429 109 512 164 512 267 c 2
 512 645 l 1
 629 645 l 1
 629 281 l 2
EndSplineSet
Validated: 1
EndChar

StartChar: V
Encoding: 86 86 22
Width: 732
VWidth: 0
Flags: HW
LayerCount: 3
Fore
SplineSet
41 620 m 1
 163 620 l 1
 366 102 l 1
 573 620 l 1
 687 620 l 1
 441 0 l 1
 292 0 l 1
 41 620 l 1
EndSplineSet
Validated: 1
EndChar

StartChar: W
Encoding: 87 87 23
Width: 1009
VWidth: 0
Flags: HW
LayerCount: 3
Fore
SplineSet
44 621 m 1
 161 621 l 1
 303 112 l 1
 435 621 l 1
 583 621 l 1
 718 112 l 1
 859 621 l 1
 962 621 l 1
 791 0 l 1
 646 0 l 1
 508 489 l 1
 372 0 l 1
 222 0 l 1
 44 621 l 1
EndSplineSet
Validated: 1
EndChar

StartChar: X
Encoding: 88 88 24
Width: 679
VWidth: 0
Flags: HW
LayerCount: 3
Fore
SplineSet
52 632 m 1
 178 632 l 1
 341 405 l 1
 500 632 l 1
 624 632 l 1
 406 315 l 1
 633 0 l 1
 497 0 l 1
 331 235 l 1
 167 0 l 1
 45 0 l 1
 268 325 l 1
 52 632 l 1
EndSplineSet
Validated: 1
EndChar

StartChar: Y
Encoding: 89 89 25
Width: 704
VWidth: 0
Flags: HW
LayerCount: 3
Fore
SplineSet
41 627 m 1
 167 627 l 1
 355 358 l 1
 536 627 l 1
 661 627 l 1
 412 252 l 1
 412 0 l 1
 295 0 l 1
 295 253 l 1
 41 627 l 1
EndSplineSet
Validated: 1
EndChar

StartChar: Z
Encoding: 90 90 26
Width: 612
VWidth: 0
Flags: HW
LayerCount: 3
Fore
SplineSet
70 622 m 1
 545 622 l 1
 545 528 l 1
 196 110 l 1
 553 110 l 1
 553 0 l 1
 57 0 l 1
 57 113 l 1
 400 522 l 1
 70 522 l 1
 70 622 l 1
EndSplineSet
Validated: 1
EndChar

StartChar: a
Encoding: 97 97 27
Width: 569
VWidth: 0
Flags: HW
LayerCount: 3
Fore
SplineSet
302 494 m 0
 402 493 498 444 498 348 c 2
 498 6 l 1
 403 6 l 1
 391 53 l 1
 355 18 293 0 233 0 c 0
 166 0 103 22 82 66 c 0
 64 103 56 136 56 164 c 0
 56 262 160 304 315 304 c 0
 338 304 362 303 387 301 c 1
 389 308 390 315 390 322 c 0
 390 372 335 401 283 401 c 0
 243 401 205 384 191 348 c 1
 78 348 l 1
 97 446 200 494 299 494 c 0
 300 494 301 494 302 494 c 0
316 214 m 0
 224 214 167 199 165 163 c 0
 165 162 165 160 165 158 c 0
 165 140 171 106 198 102 c 0
 226 98 249 97 270 97 c 0
 360 97 386 130 386 189 c 0
 386 196 386 204 385 212 c 1
 361 213 337 214 316 214 c 0
EndSplineSet
Validated: 1
EndChar

StartChar: b
Encoding: 98 98 28
Width: 631
VWidth: 0
Flags: HW
LayerCount: 3
Fore
SplineSet
74 652 m 1
 189 652 l 1
 189 435 l 1
 229 474 285 495 341 496 c 0
 342 496 344 496 345 496 c 0
 408 496 469 471 510 418 c 0
 552 364 570 303 570 245 c 0
 570 179 546 116 510 70 c 0
 473 22 405 0 339 -0 c 0
 276 0 215 20 179 56 c 1
 168 9 l 1
 74 9 l 1
 74 652 l 1
319 388 m 0
 244 388 183 324 183 244 c 0
 183 164 244 99 319 99 c 0
 394 99 455 164 455 244 c 0
 455 324 394 388 319 388 c 0
EndSplineSet
Validated: 1
EndChar

StartChar: c
Encoding: 99 99 29
Width: 585
VWidth: 0
Flags: HW
LayerCount: 3
Fore
SplineSet
299 503 m 0
 403 503 493 435 527 340 c 1
 399 340 l 1
 378 371 332 396 298 396 c 0
 227 396 170 330 170 248 c 0
 170 166 227 100 298 100 c 0
 336 100 385 131 406 168 c 1
 528 168 l 1
 495 70 405 0 299 0 c 0
 150 0 56 113 56 252 c 0
 56 391 165 503 299 503 c 0
EndSplineSet
Validated: 1
EndChar

StartChar: d
Encoding: 100 100 30
Width: 628
VWidth: 0
Flags: HW
LayerCount: 3
Fore
SplineSet
552 652 m 1
 552 9 l 1
 458 9 l 1
 447 56 l 1
 411 20 350 0 287 -0 c 0
 221 0 153 22 116 70 c 0
 80 116 56 179 56 245 c 0
 56 303 74 364 116 418 c 0
 157 471 218 496 281 496 c 0
 282 496 284 496 285 496 c 0
 341 495 397 474 437 435 c 1
 437 652 l 1
 552 652 l 1
307 388 m 0
 232 388 171 324 171 244 c 0
 171 164 232 99 307 99 c 0
 382 99 443 164 443 244 c 0
 443 324 382 388 307 388 c 0
EndSplineSet
Validated: 1
EndChar

StartChar: e
Encoding: 101 101 31
Width: 592
VWidth: 0
Flags: HW
LayerCount: 3
Fore
SplineSet
297 500 m 0
 430 500 531 411 531 250 c 0
 531 233 530 217 528 202 c 1
 172 202 l 1
 187 142 232 99 298 99 c 0
 339 99 374 113 397 144 c 1
 515 144 l 1
 471 18 348 0 297 0 c 0
 164 0 56 94 56 250 c 0
 56 399 164 500 297 500 c 0
298 399 m 0
 243 399 195 357 176 301 c 1
 418 301 l 1
 402 362 357 399 298 399 c 0
EndSplineSet
Validated: 1
EndChar

StartChar: f
Encoding: 102 102 32
Width: 367
VWidth: 0
Flags: HW
LayerCount: 3
Fore
SplineSet
114 493 m 2
 114 625 177 643 269 643 c 2
 306 643 l 1
 306 544 l 1
 259 544 228 541 228 493 c 2
 228 479 l 1
 303 479 l 1
 303 380 l 1
 228 380 l 1
 228 0 l 1
 114 0 l 1
 114 380 l 1
 53 380 l 1
 53 479 l 1
 114 479 l 1
 114 493 l 2
EndSplineSet
Validated: 1
EndChar

StartChar: g
Encoding: 103 103 33
Width: 626
VWidth: 0
Flags: HW
LayerCount: 3
Fore
SplineSet
68 -2 m 1
 191 -4 l 1
 213 -39 265 -60 315 -60 c 0
 378 -60 439 -28 439 51 c 0
 439 57 439 64 438 70 c 1
 398 32 342 13 286 12 c 0
 285 12 283 12 282 12 c 0
 219 12 158 36 117 87 c 0
 75 139 57 197 57 252 c 0
 57 315 81 375 117 420 c 0
 154 466 221 487 288 487 c 0
 350 487 412 469 448 434 c 1
 459 478 l 1
 553 478 l 1
 553 51 l 2
 553 -76 434 -148 311 -148 c 0
 213 -148 113 -103 68 -2 c 1
308 115 m 0
 383 115 444 177 444 254 c 0
 444 331 383 392 308 392 c 0
 233 392 172 331 172 254 c 0
 172 177 233 115 308 115 c 0
EndSplineSet
Validated: 1
EndChar

StartChar: h
Encoding: 104 104 34
Width: 578
VWidth: 0
Flags: HW
LayerCount: 3
Fore
SplineSet
188 419 m 1
 217 456 281 487 343 487 c 0
 426 487 508 434 508 275 c 2
 508 0 l 1
 393 0 l 1
 393 288 l 2
 393 353 347 380 298 380 c 0
 244 380 188 347 188 296 c 2
 188 0 l 1
 74 0 l 1
 74 645 l 1
 188 645 l 1
 188 419 l 1
EndSplineSet
Validated: 1
EndChar

StartChar: i
Encoding: 105 105 35
Width: 268
VWidth: 0
Flags: HW
LayerCount: 3
Fore
SplineSet
74 629 m 1
 192 629 l 1
 192 522 l 1
 74 522 l 1
 74 629 l 1
74 479 m 1
 192 479 l 1
 192 0 l 1
 74 0 l 1
 74 479 l 1
EndSplineSet
Validated: 1
EndChar

StartChar: j
Encoding: 106 106 36
Width: 273
VWidth: 0
Flags: HW
LayerCount: 3
Fore
SplineSet
79 626 m 1
 197 626 l 1
 197 518 l 1
 79 518 l 1
 79 626 l 1
79 475 m 1
 197 475 l 1
 197 -4 l 2
 197 -87 164 -141 64 -141 c 0
 57 -141 50 -141 42 -140 c 1
 42 -42 l 1
 70 -40 79 -33 79 -4 c 2
 79 475 l 1
EndSplineSet
Validated: 1
EndChar

StartChar: k
Encoding: 107 107 37
Width: 566
VWidth: 0
Flags: HW
LayerCount: 3
Fore
SplineSet
74 646 m 1
 193 646 l 1
 193 331 l 1
 368 478 l 1
 520 478 l 1
 347 332 l 1
 508 0 l 1
 377 0 l 1
 259 257 l 1
 193 202 l 1
 193 0 l 1
 74 0 l 1
 74 646 l 1
EndSplineSet
Validated: 1
EndChar

StartChar: l
Encoding: 108 108 38
Width: 264
VWidth: 0
Flags: HW
LayerCount: 3
Fore
SplineSet
74 0 m 1
 74 646 l 1
 188 646 l 1
 188 0 l 1
 74 0 l 1
EndSplineSet
Validated: 1
EndChar

StartChar: m
Encoding: 109 109 39
Width: 865
VWidth: 0
Flags: HW
LayerCount: 3
Fore
SplineSet
178 417 m 1
 214 464 269 485 323 485 c 0
 388 485 451 453 474 398 c 1
 500 452 565 485 630 485 c 0
 713 485 795 433 795 303 c 2
 795 0 l 1
 678 0 l 1
 678 303 l 2
 678 354 632 380 586 380 c 0
 539 380 493 354 493 303 c 2
 493 0 l 1
 374 0 l 1
 374 303 l 2
 374 354 327 380 280 380 c 0
 234 380 189 355 189 303 c 2
 189 0 l 1
 71 0 l 1
 71 478 l 1
 166 478 l 1
 178 417 l 1
EndSplineSet
Validated: 1
EndChar

StartChar: n
Encoding: 110 110 40
Width: 579
VWidth: 0
Flags: HW
LayerCount: 3
Fore
SplineSet
182 417 m 1
 213 458 273 483 334 483 c 0
 421 483 509 432 509 304 c 0
 509 303 l 2
 509 0 l 1
 389 0 l 1
 389 303 l 2
 389 354 339 380 290 380 c 0
 241 380 193 355 193 303 c 2
 193 0 l 1
 71 0 l 1
 71 478 l 1
 170 478 l 1
 182 417 l 1
EndSplineSet
Validated: 1
EndChar

StartChar: o
Encoding: 111 111 41
Width: 612
VWidth: 0
Flags: HW
LayerCount: 3
Fore
SplineSet
303 500 m 0
 452 498 551 382 551 242 c 0
 551 96 425 0 306 -0 c 0
 305 0 303 0 302 0 c 0
 156 3 56 117 56 252 c 0
 56 253 56 255 56 256 c 0
 58 403 178 500 299 500 c 0
 300 500 302 500 303 500 c 0
307 394 m 0
 305 394 304 394 302 394 c 0
 241 394 181 357 177 263 c 0
 177 258 177 253 177 249 c 0
 177 153 227 107 300 104 c 0
 302 104 304 104 306 104 c 0
 378 104 437 161 437 247 c 0
 437 335 389 391 307 394 c 0
EndSplineSet
Validated: 1
EndChar

StartChar: p
Encoding: 112 112 42
Width: 626
VWidth: 0
Flags: HW
LayerCount: 3
Fore
SplineSet
71 -138 m 1
 71 472 l 1
 165 472 l 1
 179 422 l 1
 216 463 280 486 343 486 c 0
 407 486 471 463 507 412 c 0
 542 363 565 300 565 233 c 0
 565 176 548 118 507 64 c 0
 466 11 404 -14 342 -14 c 0
 340 -14 339 -14 338 -14 c 0
 282 -13 226 8 186 47 c 1
 186 -138 l 1
 71 -138 l 1
316 94 m 0
 391 94 452 158 452 238 c 0
 452 318 391 383 316 383 c 0
 241 383 180 318 180 238 c 0
 180 158 241 94 316 94 c 0
EndSplineSet
Validated: 1
EndChar

StartChar: q
Encoding: 113 113 43
Width: 624
VWidth: 0
Flags: HW
LayerCount: 3
Fore
SplineSet
550 -135 m 1
 434 -135 l 1
 434 50 l 1
 394 11 339 -11 283 -12 c 0
 282 -12 281 -12 279 -12 c 0
 217 -12 155 13 114 66 c 0
 73 120 56 178 56 235 c 0
 56 302 79 365 114 414 c 0
 150 465 215 489 279 489 c 0
 342 489 405 466 442 425 c 1
 455 475 l 1
 550 475 l 1
 550 -135 l 1
305 96 m 0
 380 96 440 161 440 241 c 0
 440 321 380 385 305 385 c 0
 230 385 169 321 169 241 c 0
 169 161 230 96 305 96 c 0
EndSplineSet
Validated: 1
EndChar

StartChar: r
Encoding: 114 114 44
Width: 365
VWidth: 0
Flags: HW
LayerCount: 3
Fore
SplineSet
71 481 m 1
 166 481 l 1
 178 407 l 1
 228 472 260 481 289 481 c 0
 294 481 300 480 305 480 c 1
 305 382 l 1
 243 377 187 335 187 249 c 2
 187 0 l 1
 71 0 l 1
 71 481 l 1
EndSplineSet
Validated: 1
EndChar

StartChar: s
Encoding: 115 115 45
Width: 559
VWidth: 0
Flags: HW
LayerCount: 3
Fore
SplineSet
52 164 m 1
 164 164 l 1
 179 112 234 91 285 91 c 0
 331 91 374 108 381 133 c 0
 383 139 384 145 384 150 c 0
 384 174 361 183 319 196 c 0
 288 206 232 212 204 215 c 0
 183 217 119 240 83 283 c 0
 71 297 65 317 65 338 c 0
 65 366 76 397 94 424 c 0
 125 470 197 493 271 493 c 0
 377 493 487 447 492 358 c 1
 376 358 l 1
 350 409 317 402 267 404 c 0
 265 404 263 404 262 404 c 0
 226 404 187 395 177 368 c 0
 175 362 174 356 174 351 c 0
 174 330 194 317 227 308 c 0
 261 299 310 296 355 286 c 0
 404 275 459 267 486 200 c 0
 493 183 496 165 496 146 c 0
 496 119 490 94 479 76 c 0
 447 24 383 7 309 1 c 0
 299 0 289 0 279 -0 c 0
 142 0 58 81 52 164 c 1
EndSplineSet
Validated: 1
EndChar

StartChar: t
Encoding: 116 116 46
Width: 383
VWidth: 0
Flags: HW
LayerCount: 3
Fore
SplineSet
108 598 m 1
 224 598 l 1
 224 480 l 1
 319 480 l 1
 319 379 l 1
 224 379 l 1
 224 167 l 2
 224 104 246 101 282 101 c 0
 286 101 290 101 295 101 c 0
 302 101 309 101 317 100 c 1
 317 1 l 1
 300 0 284 0 270 -0 c 0
 121 0 108 51 108 167 c 2
 108 379 l 1
 54 379 l 1
 54 480 l 1
 108 480 l 1
 108 598 l 1
EndSplineSet
Validated: 1
EndChar

StartChar: u
Encoding: 117 117 47
Width: 569
VWidth: 0
Flags: HW
LayerCount: 3
Fore
SplineSet
499 213 m 2
 499 69 394 0 287 0 c 0
 177 0 66 73 66 213 c 2
 66 493 l 1
 181 493 l 1
 181 219 l 2
 181 149 235 110 287 110 c 0
 336 110 383 144 383 219 c 2
 383 493 l 1
 499 493 l 1
 499 213 l 2
EndSplineSet
Validated: 1
EndChar

StartChar: v
Encoding: 118 118 48
Width: 594
VWidth: 0
Flags: HW
LayerCount: 3
Fore
SplineSet
47 482 m 1
 164 482 l 1
 294 132 l 1
 424 482 l 1
 543 482 l 1
 359 0 l 1
 228 0 l 1
 47 482 l 1
EndSplineSet
Validated: 1
EndChar

StartChar: w
Encoding: 119 119 49
Width: 825
VWidth: 0
Flags: HW
LayerCount: 3
Fore
SplineSet
48 483 m 1
 158 483 l 1
 258 132 l 1
 357 483 l 1
 468 483 l 1
 569 132 l 1
 668 483 l 1
 773 483 l 1
 632 0 l 1
 499 0 l 1
 409 309 l 1
 319 0 l 1
 189 0 l 1
 48 483 l 1
EndSplineSet
Validated: 1
EndChar

StartChar: x
Encoding: 120 120 50
Width: 576
VWidth: 0
Flags: HW
LayerCount: 3
Fore
SplineSet
54 481 m 1
 180 481 l 1
 293 322 l 1
 403 481 l 1
 524 481 l 1
 351 240 l 1
 520 0 l 1
 388 0 l 1
 278 158 l 1
 170 0 l 1
 47 0 l 1
 221 241 l 1
 54 481 l 1
EndSplineSet
Validated: 1
EndChar

StartChar: y
Encoding: 121 121 51
Width: 588
VWidth: 0
Flags: HW
LayerCount: 3
Fore
SplineSet
46 475 m 1
 165 475 l 1
 294 153 l 1
 424 475 l 1
 538 475 l 1
 292 -136 l 1
 178 -136 l 1
 238 13 l 1
 46 475 l 1
EndSplineSet
Validated: 1
EndChar

StartChar: z
Encoding: 122 122 52
Width: 531
VWidth: 0
Flags: HW
LayerCount: 3
Fore
SplineSet
461 376 m 1
 203 99 l 1
 468 99 l 1
 468 0 l 1
 61 0 l 1
 61 99 l 1
 316 376 l 1
 68 376 l 1
 68 477 l 1
 461 477 l 1
 461 376 l 1
EndSplineSet
Validated: 1
EndChar

StartChar: braceleft
Encoding: 123 123 53
Width: 475
VWidth: 0
Flags: HW
LayerCount: 3
Fore
SplineSet
421 648 m 1
 421 541 l 1
 316 520 262 386 262 252 c 0
 262 122 313 -8 421 -36 c 1
 421 -141 l 1
 249 -111 165 29 144 199 c 1
 63 199 l 1
 63 310 l 1
 144 310 l 1
 168 494 247 621 421 648 c 1
EndSplineSet
Validated: 1
EndChar

StartChar: braceright
Encoding: 125 125 54
Width: 478
VWidth: 0
Flags: HW
LayerCount: 3
Fore
SplineSet
55 645 m 1
 229 618 308 491 332 307 c 1
 412 307 l 1
 412 196 l 1
 332 196 l 1
 311 26 225 -112 53 -142 c 1
 53 -38 l 1
 161 -10 213 121 213 251 c 0
 213 384 159 517 55 538 c 1
 55 645 l 1
EndSplineSet
Validated: 1
EndChar

StartChar: bar
Encoding: 124 124 55
Width: 265
VWidth: 0
Flags: HW
LayerCount: 3
Fore
SplineSet
75 -134 m 1
 75 650 l 1
 190 650 l 1
 190 -134 l 1
 75 -134 l 1
EndSplineSet
Validated: 1
EndChar

StartChar: asciitilde
Encoding: 126 126 56
Width: 492
VWidth: 0
Flags: HW
LayerCount: 3
Fore
SplineSet
66 262 m 1
 67 300 77 354 111 372 c 0
 128 381 144 384 161 384 c 0
 206 384 250 359 296 355 c 0
 300 355 305 354 309 354 c 0
 324 354 335 358 335 374 c 0
 335 377 335 380 334 383 c 1
 431 383 l 1
 425 347 424 295 392 276 c 0
 372 264 352 259 331 259 c 0
 286 259 239 280 193 287 c 0
 188 288 183 289 177 289 c 0
 169 289 161 285 160 262 c 1
 66 262 l 1
EndSplineSet
Validated: 1
EndChar
